<svg version="1.0" xmlns="http://www.w3.org/2000/svg"
 width="300.000000pt" height="164.000000pt" viewBox="0 0 300.000000 164.000000"
 preserveAspectRatio="xMidYMid meet">
<metadata>
Created by potrace 1.10, written by Peter Selinger 2001-2011
</metadata>
<g transform="translate(0.000000,164.000000) scale(0.100000,-0.100000)"
fill="#000000" stroke="none">
<path d="M730 1543 c0 -118 10 -204 21 -197 5 3 9 15 10 27 1 20 2 20 9 -3 4
-14 8 -70 9 -125 1 -118 11 -205 22 -205 4 0 9 10 11 23 2 12 9 21 15 20 6 -1
15 11 18 28 6 24 9 28 21 18 8 -6 14 -21 14 -33 0 -29 35 -66 63 -66 33 0 67
28 67 55 0 13 7 28 16 33 23 13 10 31 -34 49 -30 13 -33 16 -19 24 11 7 32 6
59 -2 24 -6 49 -12 56 -13 14 -2 14 -5 5 -59 -3 -20 -10 -40 -14 -43 -5 -3 -9
-16 -9 -28 0 -13 -6 -29 -14 -35 -8 -6 -16 -21 -19 -31 -4 -15 1 -22 19 -26
30 -8 30 -8 -1 -75 -67 -146 -72 -150 -212 -178 -186 -38 -434 -20 -529 38
-34 21 -36 29 -50 199 -4 46 -12 89 -18 95 -12 13 -14 226 -3 317 6 46 5 51
-5 30 -6 -14 -13 -94 -16 -185 -3 -106 -7 -152 -13 -137 -10 27 -29 21 -29 -9
0 -11 -5 -17 -10 -14 -6 4 -9 -9 -6 -35 3 -34 10 -46 39 -65 33 -23 36 -29 43
-92 10 -98 43 -178 78 -187 20 -6 20 -7 -7 -29 -17 -13 -32 -37 -36 -57 -6
-32 -10 -35 -51 -41 -53 -7 -98 -24 -124 -47 -36 -32 -96 -135 -96 -165 0 -29
1 -28 38 25 77 113 98 130 177 148 27 6 55 16 62 21 17 15 73 128 73 150 0 16
4 16 58 2 67 -17 82 -28 53 -38 -34 -11 -54 -60 -46 -114 4 -25 7 -69 6 -96
-2 -55 25 -208 59 -334 17 -62 26 -81 40 -81 16 0 15 7 -7 83 -27 92 -73 343
-65 352 14 14 21 0 27 -52 8 -69 50 -269 69 -333 17 -58 49 -70 35 -13 -24
101 -30 134 -27 145 3 7 12 -11 21 -38 34 -104 55 -144 77 -144 19 0 19 2 6
23 -35 55 -132 380 -123 416 5 22 8 14 51 -146 57 -212 110 -324 136 -283 5 8
9 9 14 1 4 -6 18 -11 31 -11 36 0 81 59 90 116 4 28 17 60 32 78 13 16 38 55
54 87 16 33 31 59 33 59 7 0 -44 -140 -83 -226 -45 -100 -48 -114 -27 -114 18
0 98 181 150 342 38 120 56 154 56 109 0 -27 -92 -285 -134 -376 -31 -66 -33
-75 -17 -75 23 0 69 101 137 297 51 148 52 162 11 187 -12 8 -22 5 -42 -14
-27 -26 -27 -26 -25 41 2 72 -20 92 -116 100 -44 4 -126 8 -184 9 -155 2 -218
17 -77 19 114 1 287 30 338 56 39 21 74 70 109 155 33 79 36 100 19 117 -8 8
-5 29 12 80 34 103 30 147 -24 240 -24 43 -47 88 -51 100 -4 12 -19 32 -33 43
-23 18 -29 19 -47 7 -12 -8 -28 -32 -36 -53 -8 -22 -25 -55 -36 -74 -12 -19
-27 -52 -34 -72 -6 -21 -15 -38 -19 -38 -5 0 -11 36 -15 81 -4 49 -14 94 -26
117 -16 30 -20 56 -20 139 0 96 -1 103 -20 103 -19 0 -20 -7 -20 -97z m270
-160 c0 -21 66 -136 90 -158 34 -30 22 -37 -17 -10 -27 18 -51 25 -85 25 l-46
0 5 78 c6 84 17 109 39 91 8 -6 14 -18 14 -26z m-77 -116 c-3 -18 -10 -36 -14
-41 -5 -6 -9 -20 -9 -33 0 -19 -25 -43 -45 -43 -3 0 3 17 14 38 10 20 22 53
26 72 9 43 14 52 25 45 5 -3 7 -20 3 -38z m52 -166 c-10 -31 -47 -24 -59 11
-7 19 -6 31 4 43 12 15 16 14 38 -8 17 -18 22 -31 17 -46z m-127 -527 l122 -6
0 -49 c0 -55 -4 -57 -91 -63 -26 -1 -58 -10 -73 -19 -32 -22 -42 -21 -74 2
-21 14 -52 19 -139 23 -80 4 -113 2 -114 -6 -2 -33 -18 37 -18 82 l-1 53 133
-6 c72 -3 187 -8 255 -11z m132 -124 c0 -5 -14 -44 -31 -87 -55 -139 -99 -193
-156 -193 -57 0 -100 59 -149 204 -27 80 -27 76 -15 76 4 0 23 -40 40 -89 53
-149 106 -203 159 -164 32 24 85 119 113 201 11 34 25 62 30 62 5 0 9 -4 9
-10z m-78 -60 c-4 -35 -64 -141 -90 -158 -20 -13 -24 -12 -51 16 -28 31 -79
148 -68 158 3 3 20 -2 37 -11 33 -17 37 -17 105 9 53 20 71 16 67 -14z m-183
-224 c16 -10 13 -52 -4 -66 -21 -17 -29 -7 -53 70 -38 121 -37 131 7 64 21
-34 44 -65 50 -68z m126 -16 c3 -6 -1 -13 -9 -16 -10 -4 -16 -18 -16 -39 0
-18 -7 -38 -14 -45 -33 -26 -97 13 -68 42 10 10 14 8 19 -10 9 -38 37 -23 41
22 2 25 0 36 -7 31 -14 -8 -33 3 -26 16 8 12 72 12 80 -1z"/>
<path d="M1300 1633 c0 -3 21 -43 48 -87 l47 -81 3 -162 c4 -158 3 -163 -22
-205 -17 -30 -28 -70 -36 -130 -7 -58 -19 -104 -35 -134 -14 -26 -25 -53 -25
-59 0 -7 -20 -40 -45 -73 -25 -33 -45 -67 -45 -76 0 -9 14 -25 32 -34 17 -9
48 -32 69 -50 24 -21 61 -39 104 -51 80 -22 121 -58 172 -149 36 -65 40 -87 8
-52 -22 25 -51 26 -64 2 -11 -21 17 -93 51 -129 l21 -23 -61 -59 c-58 -54 -75
-81 -53 -81 13 0 98 69 140 113 28 30 33 41 28 67 -4 20 -1 39 8 53 13 21 11
29 -33 107 -64 114 -113 164 -181 184 -30 9 -65 16 -78 16 -16 0 -23 6 -23 19
0 24 -16 36 -67 52 -48 14 -55 29 -20 44 25 11 76 99 77 131 0 11 11 30 24 41
21 18 25 33 31 110 7 89 21 153 34 153 4 0 13 -6 20 -12 10 -11 12 26 9 187
l-3 200 -38 70 c-22 39 -46 78 -55 88 -15 17 -42 24 -42 10z m276 -1406 c14
-27 23 -52 20 -55 -3 -3 -7 -3 -9 -1 -9 12 -67 120 -67 125 0 17 34 -25 56
-69z"/>
<path d="M372 1494 c-39 -79 -71 -267 -42 -249 6 3 10 27 10 53 0 58 23 148
51 203 11 23 18 43 15 46 -2 3 -18 -21 -34 -53z"/>
<path d="M596 1538 c-3 -7 -7 -26 -11 -43 -4 -16 -15 -39 -26 -51 -11 -11 -35
-50 -55 -85 -20 -35 -33 -53 -30 -39 16 67 18 80 9 80 -22 0 -74 -240 -72
-332 l2 -63 8 69 c18 140 41 200 127 329 13 20 30 37 37 37 7 0 16 17 19 38 4
20 9 45 12 55 3 9 0 17 -6 17 -6 0 -12 -6 -14 -12z"/>
<path d="M135 1294 c-12 -73 -16 -85 -35 -104 -11 -11 -15 -20 -9 -20 7 0 18
8 25 18 11 14 15 15 23 3 5 -9 10 10 13 55 6 76 -7 110 -17 48z"/>
<path d="M533 1230 c-12 -5 -27 -19 -34 -31 -10 -20 -9 -21 7 -14 46 19 124
17 124 -3 0 -4 -16 -14 -35 -21 -31 -11 -34 -15 -29 -39 14 -56 24 -72 50 -78
41 -10 56 2 84 71 10 25 14 27 23 15 7 -8 20 -21 30 -29 16 -13 16 -12 3 20
-8 19 -21 35 -30 37 -8 2 -20 19 -26 38 -6 19 -16 34 -21 34 -11 0 -11 -2 2
-56 8 -32 9 -48 1 -56 -8 -8 -15 6 -27 46 -21 72 -58 92 -122 66z"/>
<path d="M345 1018 c9 -40 12 -45 26 -31 7 7 6 18 -2 36 -17 38 -32 34 -24 -5z"/>
<path d="M718 841 c-79 -6 -99 -14 -82 -31 15 -15 316 -9 321 7 2 6 -4 14 -14
17 -35 10 -149 14 -225 7z"/>
<path d="M745 770 c3 -5 24 -10 45 -10 21 0 42 5 45 10 4 6 -13 10 -45 10 -32
0 -49 -4 -45 -10z"/>
<path d="M5 180 c-3 -5 4 -23 17 -38 34 -41 158 -142 174 -142 25 0 1 30 -78
100 -101 90 -105 93 -113 80z"/>
</g>
</svg>
